<svg xmlns="http://www.w3.org/2000/svg" xmlns:xlink="http://www.w3.org/1999/xlink" viewBox="0,0,256,256" width="48px" height="48px" fill-rule="nonzero"><g fill="#ffffff" fill-rule="nonzero" stroke="none" stroke-width="1" stroke-linecap="butt" stroke-linejoin="miter" stroke-miterlimit="10" stroke-dasharray="" stroke-dashoffset="0" font-family="none" font-weight="none" font-size="none" text-anchor="none" style="mix-blend-mode: normal"><g transform="scale(5.33333,5.33333)"><path d="M26.969,10c0,0 6.568,4.581 6.282,21.875c-0.62,-3.679 -2.622,-5.876 -4.195,-6.784c2.336,5.876 1.001,9.841 -1.192,11.943c0.81,-3.583 -0.238,-4.777 -0.238,-4.777c0,0 -0.715,5.494 -7.913,8.695c7.103,0.334 12.442,-2.914 13.205,-3.679c0,1.577 -1.525,3.726 -1.525,3.726c0,0 4.862,-1.959 5.196,-7.787c1.335,1.768 2.193,4.204 2.193,7.405c2.24,-5.064 0.906,-10.797 0.906,-10.797c0,0 5.196,2.532 7.198,10.415c1.095,-13.949 -5.626,-27.517 -19.917,-30.235z"></path><path d="M8,41h11c0,0 -0.34,-3.527 2.245,-5.011c0.191,0.766 -0.383,2.25 -0.383,2.25c0,0 2.202,-2.489 2.489,-5.027c0.527,1.388 0.287,2.537 0.287,2.537c0,0 1.245,-3.112 0.957,-5.888c0.574,0.574 0.957,1.197 0.957,1.197c0.527,-10.149 -12.16,-8.282 -12.064,-5.122c2.202,-2.25 6.69,-1.197 6.654,2.346c-0.046,4.787 -11.153,4.835 -12.142,12.718z"></path><path d="M25.793,19.378c-3.399,0.862 -5.697,1.149 -5.697,1.149c0,0 6.032,-4.883 6.75,-9.383c-3.112,4.261 -6.176,6.654 -7.66,7.277c2.489,-4.883 2.872,-8.234 2.872,-8.234c-2.059,3.303 -3.543,6.846 -6.032,7.037c0.957,-1.771 1.101,-4.117 1.101,-4.117c0,0 -1.963,3.83 -3.878,3.495c-1.915,-0.335 -3.064,-1.005 -3.064,-1.005c0,0 -4.19,6.297 -10.185,6.403l2,5c0,0 0.574,1.761 2.106,2.479c-0.957,-1.867 -0.383,-3.734 -0.383,-3.734l1.34,-0.096l0.67,1.245l0.527,-1.436c0,0 0.67,-0.096 1.676,-0.718c0.287,0.814 0.431,1.101 0.431,1.101c0,0 0,-2.537 1.723,-2.633c-0.718,4.979 1.723,5.505 1.388,7.947c-0.718,0.096 -1.245,0.192 -1.245,0.192l1.053,1.197c0,0 -0.862,1.58 -4.021,-0.622c2.489,3.495 5.075,2.154 5.553,1.436c0.478,-0.718 -0.383,-4.691 2.011,-6.606c-1.867,-0.144 -2.394,1.388 -2.394,1.388c0,0 -0.862,-3.16 1.101,-4.883c1.963,-1.723 6.847,0.094 12.257,-3.879zM9.899,20.67l-2.489,0.383l3.112,-3.016z"></path></g></g></svg>