<svg width="599" height="111" viewBox="0 0 599 111" fill="none" xmlns="http://www.w3.org/2000/svg">
<mask id="path-1-inside-1_1760_41558" fill="white">
<path d="M45.1287 28C59.6287 28 70.6787 31.4 78.2787 38.2C85.9787 45 89.8287 55.4 89.8287 69.4V74.5H30.4287C30.4287 80.2 31.6787 84.5 34.1787 87.4C36.7787 90.3 40.8287 91.75 46.3287 91.75C51.3287 91.75 54.9787 90.7 57.2787 88.6C59.6787 86.5 60.8787 83.7 60.8787 80.2H89.8287C89.8287 89.8 86.1787 97.3 78.8787 102.7C71.5787 108.1 60.9287 110.8 46.9287 110.8C32.2287 110.8 20.8287 107.4 12.7287 100.6C4.62871 93.7 0.578711 83.3 0.578711 69.4C0.578711 55.8 4.52871 45.5 12.4287 38.5C20.3287 31.5 31.2287 28 45.1287 28ZM46.3287 47.05C36.9287 47.05 31.6787 51.5 30.5787 60.4H59.6787C59.6787 56.3 58.4787 53.05 56.0787 50.65C53.7787 48.25 50.5287 47.05 46.3287 47.05ZM175.028 5.8C180.228 5.8 184.978 6.9 189.278 9.1C193.678 11.2 197.128 14.2 199.628 18.1C202.228 22 203.528 26.35 203.528 31.15C203.528 43.85 197.778 51.85 186.278 55.15V55.75C199.378 58.75 205.928 67.35 205.928 81.55C205.928 86.95 204.578 91.75 201.878 95.95C199.278 100.05 195.678 103.25 191.078 105.55C186.478 107.85 181.428 109 175.928 109H106.328V5.8H175.028ZM139.478 46H162.278C164.478 46 166.278 45.25 167.678 43.75C169.178 42.15 169.928 40.2 169.928 37.9V36.4C169.928 34.2 169.178 32.35 167.678 30.85C166.178 29.25 164.378 28.45 162.278 28.45H139.478V46ZM139.478 85H164.678C166.878 85 168.678 84.25 170.078 82.75C171.578 81.15 172.328 79.2 172.328 76.9V75.4C172.328 73.1 171.578 71.2 170.078 69.7C168.678 68.1 166.878 67.3 164.678 67.3H139.478V85ZM261.926 28C275.826 28 286.726 31.55 294.626 38.65C302.626 45.65 306.626 55.9 306.626 69.4C306.626 82.9 302.626 93.2 294.626 100.3C286.726 107.3 275.826 110.8 261.926 110.8C248.026 110.8 237.126 107.3 229.226 100.3C221.326 93.3 217.376 83 217.376 69.4C217.376 55.8 221.326 45.5 229.226 38.5C237.126 31.5 248.026 28 261.926 28ZM261.926 48.25C252.126 48.25 247.226 53.9 247.226 65.2V73.75C247.226 84.95 252.126 90.55 261.926 90.55C271.826 90.55 276.776 84.95 276.776 73.75V65.2C276.776 53.9 271.826 48.25 261.926 48.25ZM361.974 28C375.874 28 386.774 31.55 394.674 38.65C402.674 45.65 406.674 55.9 406.674 69.4C406.674 82.9 402.674 93.2 394.674 100.3C386.774 107.3 375.874 110.8 361.974 110.8C348.074 110.8 337.174 107.3 329.274 100.3C321.374 93.3 317.424 83 317.424 69.4C317.424 55.8 321.374 45.5 329.274 38.5C337.174 31.5 348.074 28 361.974 28ZM361.974 48.25C352.174 48.25 347.274 53.9 347.274 65.2V73.75C347.274 84.95 352.174 90.55 361.974 90.55C371.874 90.55 376.824 84.95 376.824 73.75V65.2C376.824 53.9 371.874 48.25 361.974 48.25ZM476.273 29.8H511.073L481.823 61.75L511.823 109H477.923L461.273 81.85L450.923 91.9V109H421.073V0.0999984H450.923V60.1L476.273 29.8ZM558.772 28C569.372 28 578.322 30.1 585.622 34.3C593.022 38.4 596.722 44.8 596.722 53.5H568.972C568.972 50.6 567.672 48.55 565.072 47.35C563.272 46.35 561.022 45.85 558.322 45.85C551.122 45.85 547.522 47.55 547.522 50.95C547.522 52.85 548.772 54.2 551.272 55C553.772 55.8 557.872 56.65 563.572 57.55C570.572 58.55 576.422 59.75 581.122 61.15C585.822 62.45 589.922 64.85 593.422 68.35C596.922 71.75 598.672 76.55 598.672 82.75C598.672 92.85 594.872 100.05 587.272 104.35C579.772 108.65 569.922 110.8 557.722 110.8C550.722 110.8 544.122 109.85 537.922 107.95C531.722 105.95 526.672 102.9 522.772 98.8C518.872 94.7 516.922 89.5 516.922 83.2H544.672V83.8C544.772 87.2 546.172 89.6 548.872 91C551.672 92.3 554.622 92.95 557.722 92.95C566.022 92.95 570.172 91 570.172 87.1C570.172 85.1 568.872 83.65 566.272 82.75C563.672 81.85 559.422 80.9 553.522 79.9C546.422 78.7 540.572 77.4 535.972 76C531.472 74.6 527.522 72.25 524.122 68.95C520.722 65.55 519.022 60.85 519.022 54.85C519.022 45.15 522.672 38.25 529.972 34.15C537.372 30.05 546.972 28 558.772 28Z"/>
</mask>
<path d="M78.2787 38.2L75.6115 41.181L75.6212 41.1896L75.6309 41.1982L78.2787 38.2ZM89.8287 74.5V78.5H93.8287V74.5H89.8287ZM30.4287 74.5V70.5H26.4287V74.5H30.4287ZM34.1787 87.4L31.1491 90.0118L31.1745 90.0412L31.2004 90.0702L34.1787 87.4ZM57.2787 88.6L54.6447 85.5897L54.6129 85.6175L54.5816 85.6461L57.2787 88.6ZM60.8787 80.2V76.2H56.8787V80.2H60.8787ZM89.8287 80.2H93.8287V76.2H89.8287V80.2ZM78.8787 102.7L76.4999 99.4842L78.8787 102.7ZM12.7287 100.6L10.1348 103.645L10.1458 103.654L10.1568 103.664L12.7287 100.6ZM12.4287 38.5L9.77596 35.5062L9.77596 35.5062L12.4287 38.5ZM30.5787 60.4L26.6089 59.9094L26.0539 64.4H30.5787V60.4ZM59.6787 60.4V64.4H63.6787V60.4H59.6787ZM56.0787 50.65L53.1908 53.4176L53.2202 53.4483L53.2503 53.4784L56.0787 50.65ZM45.1287 28V32C59.0567 32 69.0029 35.268 75.6115 41.181L78.2787 38.2L80.9459 35.219C72.3545 27.532 60.2008 24 45.1287 24V28ZM78.2787 38.2L75.6309 41.1982C82.1914 46.9919 85.8287 56.1118 85.8287 69.4H89.8287H93.8287C93.8287 54.6882 89.766 43.0081 80.9265 35.2018L78.2787 38.2ZM89.8287 69.4H85.8287V74.5H89.8287H93.8287V69.4H89.8287ZM89.8287 74.5V70.5H30.4287V74.5V78.5H89.8287V74.5ZM30.4287 74.5H26.4287C26.4287 80.7042 27.7793 86.1028 31.1491 90.0118L34.1787 87.4L37.2084 84.7882C35.5782 82.8972 34.4287 79.6958 34.4287 74.5H30.4287ZM34.1787 87.4L31.2004 90.0702C34.8305 94.119 40.1743 95.75 46.3287 95.75V91.75V87.75C41.4831 87.75 38.727 86.481 37.157 84.7298L34.1787 87.4ZM46.3287 91.75V95.75C51.7538 95.75 56.6035 94.633 59.9758 91.5539L57.2787 88.6L54.5816 85.6461C53.3539 86.767 50.9037 87.75 46.3287 87.75V91.75ZM57.2787 88.6L59.9127 91.6103C63.2716 88.6713 64.8787 84.7271 64.8787 80.2H60.8787H56.8787C56.8787 82.6729 56.0858 84.3287 54.6447 85.5897L57.2787 88.6ZM60.8787 80.2V84.2H89.8287V80.2V76.2H60.8787V80.2ZM89.8287 80.2H85.8287C85.8287 88.6166 82.7138 94.8876 76.4999 99.4842L78.8787 102.7L81.2575 105.916C89.6436 99.7124 93.8287 90.9834 93.8287 80.2H89.8287ZM78.8787 102.7L76.4999 99.4842C70.1712 104.166 60.5078 106.8 46.9287 106.8V110.8V114.8C61.3496 114.8 72.9862 112.034 81.2575 105.916L78.8787 102.7ZM46.9287 110.8V106.8C32.8054 106.8 22.4433 103.533 15.3006 97.5364L12.7287 100.6L10.1568 103.664C19.2141 111.267 31.652 114.8 46.9287 114.8V110.8ZM12.7287 100.6L15.3226 97.555C8.37034 91.6328 4.57871 82.5115 4.57871 69.4H0.578712H-3.42129C-3.42129 84.0885 0.887078 95.7672 10.1348 103.645L12.7287 100.6ZM0.578712 69.4H4.57871C4.57871 56.5927 8.27055 47.5288 15.0815 41.4938L12.4287 38.5L9.77596 35.5062C0.786874 43.4712 -3.42129 55.0073 -3.42129 69.4H0.578712ZM12.4287 38.5L15.0815 41.4938C22.0438 35.3247 31.8905 32 45.1287 32V28V24C30.5669 24 18.6136 27.6753 9.77596 35.5062L12.4287 38.5ZM46.3287 47.05V43.05C41.028 43.05 36.3289 44.3067 32.7548 47.3362C29.1541 50.3882 27.2437 54.7732 26.6089 59.9094L30.5787 60.4L34.5485 60.8906C35.0137 57.1268 36.2784 54.8368 37.9276 53.4388C39.6035 52.0183 42.2294 51.05 46.3287 51.05V47.05ZM30.5787 60.4V64.4H59.6787V60.4V56.4H30.5787V60.4ZM59.6787 60.4H63.6787C63.6787 55.4748 62.2089 51.1234 58.9071 47.8216L56.0787 50.65L53.2503 53.4784C54.7485 54.9766 55.6787 57.1252 55.6787 60.4H59.6787ZM56.0787 50.65L58.9667 47.8824C55.7248 44.4995 51.3147 43.05 46.3287 43.05V47.05V51.05C49.7427 51.05 51.8327 52.0005 53.1908 53.4176L56.0787 50.65ZM189.278 9.1L187.456 12.661L187.505 12.6861L187.555 12.7099L189.278 9.1ZM199.628 18.1L196.26 20.2587L196.279 20.2889L196.299 20.3188L199.628 18.1ZM186.278 55.15L185.174 51.3052L182.278 52.1364V55.15H186.278ZM186.278 55.75H182.278V58.9375L185.385 59.6491L186.278 55.75ZM201.878 95.95L198.513 93.787L198.506 93.7974L198.5 93.8078L201.878 95.95ZM106.328 109H102.328V113H106.328V109ZM106.328 5.8V1.8H102.328V5.8H106.328ZM139.478 46H135.478V50H139.478V46ZM167.678 43.75L164.759 41.0142L164.753 41.0207L167.678 43.75ZM167.678 30.85L164.759 33.5858L164.804 33.6328L164.849 33.6784L167.678 30.85ZM139.478 28.45V24.45H135.478V28.45H139.478ZM139.478 85H135.478V89H139.478V85ZM170.078 82.75L167.159 80.0142L167.153 80.0207L170.078 82.75ZM170.078 69.7L167.067 72.334L167.155 72.4342L167.249 72.5284L170.078 69.7ZM139.478 67.3V63.3H135.478V67.3H139.478ZM175.028 5.8V9.8C179.644 9.8 183.762 10.7713 187.456 12.661L189.278 9.1L191.099 5.53901C186.193 3.02867 180.811 1.8 175.028 1.8V5.8ZM189.278 9.1L187.555 12.7099C191.319 14.5065 194.184 17.0198 196.26 20.2587L199.628 18.1L202.995 15.9413C200.071 11.3802 196.036 7.89351 191 5.49007L189.278 9.1ZM199.628 18.1L196.299 20.3188C198.45 23.5451 199.528 27.1195 199.528 31.15H203.528H207.528C207.528 25.5805 206.005 20.4549 202.956 15.8812L199.628 18.1ZM203.528 31.15H199.528C199.528 36.9044 198.229 41.1939 195.967 44.3405C193.722 47.4637 190.251 49.8484 185.174 51.3052L186.278 55.15L187.381 58.9948C193.804 57.1516 198.958 53.8862 202.463 49.0095C205.952 44.1561 207.528 38.0956 207.528 31.15H203.528ZM186.278 55.15H182.278V55.75H186.278H190.278V55.15H186.278ZM186.278 55.75L185.385 59.6491C191.251 60.9925 195.252 63.4855 197.833 66.8736C200.432 70.2863 201.928 75.051 201.928 81.55H205.928H209.928C209.928 73.849 208.148 67.2137 204.197 62.0264C200.228 56.8145 194.404 53.5075 187.17 51.8509L186.278 55.75ZM205.928 81.55H201.928C201.928 86.2482 200.764 90.2849 198.513 93.787L201.878 95.95L205.242 98.113C208.391 93.2151 209.928 87.6518 209.928 81.55H205.928ZM201.878 95.95L198.5 93.8078C196.312 97.2569 193.279 99.9774 189.289 101.972L191.078 105.55L192.866 109.128C198.077 106.523 202.243 102.843 205.256 98.0922L201.878 95.95ZM191.078 105.55L189.289 101.972C185.282 103.975 180.851 105 175.928 105V109V113C182.004 113 187.673 111.725 192.866 109.128L191.078 105.55ZM175.928 109V105H106.328V109V113H175.928V109ZM106.328 109H110.328V5.8H106.328H102.328V109H106.328ZM106.328 5.8V9.8H175.028V5.8V1.8H106.328V5.8ZM139.478 46V50H162.278V46V42H139.478V46ZM162.278 46V50C165.497 50 168.386 48.8531 170.602 46.4793L167.678 43.75L164.753 41.0207C164.169 41.6469 163.458 42 162.278 42V46ZM167.678 43.75L170.596 46.4858C172.827 44.1055 173.928 41.1617 173.928 37.9H169.928H165.928C165.928 39.2383 165.528 40.1945 164.759 41.0142L167.678 43.75ZM169.928 37.9H173.928V36.4H169.928H165.928V37.9H169.928ZM169.928 36.4H173.928C173.928 33.1831 172.787 30.3022 170.506 28.0216L167.678 30.85L164.849 33.6784C165.568 34.3978 165.928 35.2169 165.928 36.4H169.928ZM167.678 30.85L170.596 28.1142C168.377 25.7479 165.537 24.45 162.278 24.45V28.45V32.45C163.218 32.45 163.978 32.7521 164.759 33.5858L167.678 30.85ZM162.278 28.45V24.45H139.478V28.45V32.45H162.278V28.45ZM139.478 28.45H135.478V46H139.478H143.478V28.45H139.478ZM139.478 85V89H164.678V85V81H139.478V85ZM164.678 85V89C167.897 89 170.786 87.8531 173.002 85.4793L170.078 82.75L167.153 80.0207C166.569 80.6469 165.858 81 164.678 81V85ZM170.078 82.75L172.996 85.4858C175.227 83.1055 176.328 80.1617 176.328 76.9H172.328H168.328C168.328 78.2383 167.928 79.1945 167.159 80.0142L170.078 82.75ZM172.328 76.9H176.328V75.4H172.328H168.328V76.9H172.328ZM172.328 75.4H176.328C176.328 72.1377 175.223 69.1887 172.906 66.8716L170.078 69.7L167.249 72.5284C167.932 73.2113 168.328 74.0623 168.328 75.4H172.328ZM170.078 69.7L173.088 67.066C170.899 64.564 167.985 63.3 164.678 63.3V67.3V71.3C165.77 71.3 166.456 71.636 167.067 72.334L170.078 69.7ZM164.678 67.3V63.3H139.478V67.3V71.3H164.678V67.3ZM139.478 67.3H135.478V85H139.478H143.478V67.3H139.478ZM294.626 38.65L291.952 41.625L291.972 41.6428L291.992 41.6603L294.626 38.65ZM294.626 100.3L297.278 103.294L297.281 103.292L294.626 100.3ZM229.226 100.3L226.573 103.294L229.226 100.3ZM229.226 38.5L226.573 35.5062V35.5062L229.226 38.5ZM261.926 28V32C275.15 32 284.989 35.3673 291.952 41.625L294.626 38.65L297.299 35.675C288.462 27.7327 276.501 24 261.926 24V28ZM294.626 38.65L291.992 41.6603C298.9 47.7053 302.626 56.7191 302.626 69.4H306.626H310.626C310.626 55.0809 306.351 43.5947 297.26 35.6397L294.626 38.65ZM306.626 69.4H302.626C302.626 82.0782 298.901 91.1576 291.97 97.3083L294.626 100.3L297.281 103.292C306.35 95.2424 310.626 83.7218 310.626 69.4H306.626ZM294.626 100.3L291.973 97.3062C285.011 103.475 275.164 106.8 261.926 106.8V110.8V114.8C276.487 114.8 288.441 111.125 297.278 103.294L294.626 100.3ZM261.926 110.8V106.8C248.687 106.8 238.841 103.475 231.878 97.3062L229.226 100.3L226.573 103.294C235.411 111.125 247.364 114.8 261.926 114.8V110.8ZM229.226 100.3L231.878 97.3062C225.067 91.2712 221.376 82.2073 221.376 69.4H217.376H213.376C213.376 83.7926 217.584 95.3288 226.573 103.294L229.226 100.3ZM217.376 69.4H221.376C221.376 56.5927 225.067 47.5288 231.878 41.4938L229.226 38.5L226.573 35.5062C217.584 43.4712 213.376 55.0073 213.376 69.4H217.376ZM229.226 38.5L231.878 41.4938C238.841 35.3247 248.687 32 261.926 32V28V24C247.364 24 235.411 27.6753 226.573 35.5062L229.226 38.5ZM261.926 48.25V44.25C256.249 44.25 251.308 45.9128 247.879 49.8668C244.544 53.7117 243.226 59.0621 243.226 65.2H247.226H251.226C251.226 60.0379 252.357 56.9133 253.922 55.1082C255.393 53.4121 257.802 52.25 261.926 52.25V48.25ZM247.226 65.2H243.226V73.75H247.226H251.226V65.2H247.226ZM247.226 73.75H243.226C243.226 79.8451 244.547 85.1635 247.89 88.984C251.322 92.9065 256.26 94.55 261.926 94.55V90.55V86.55C257.791 86.55 255.379 85.3935 253.911 83.716C252.354 81.9365 251.226 78.8549 251.226 73.75H247.226ZM261.926 90.55V94.55C267.629 94.55 272.599 92.9142 276.06 88.9991C279.438 85.1782 280.776 79.8535 280.776 73.75H276.776H272.776C272.776 78.8465 271.639 81.9218 270.066 83.7009C268.577 85.3858 266.122 86.55 261.926 86.55V90.55ZM276.776 73.75H280.776V65.2H276.776H272.776V73.75H276.776ZM276.776 65.2H280.776C280.776 59.0538 279.441 53.6971 276.072 49.8516C272.614 45.905 267.64 44.25 261.926 44.25V48.25V52.25C266.111 52.25 268.562 53.42 270.054 55.1234C271.635 56.9278 272.776 60.0462 272.776 65.2H276.776ZM394.674 38.65L392.001 41.625L392.02 41.6428L392.04 41.6603L394.674 38.65ZM394.674 100.3L397.327 103.294L397.33 103.292L394.674 100.3ZM329.274 100.3L326.622 103.294L329.274 100.3ZM329.274 38.5L326.622 35.5062V35.5062L329.274 38.5ZM361.974 28V32C375.199 32 385.038 35.3673 392.001 41.625L394.674 38.65L397.348 35.675C388.511 27.7327 376.55 24 361.974 24V28ZM394.674 38.65L392.04 41.6603C398.949 47.7053 402.674 56.7191 402.674 69.4H406.674H410.674C410.674 55.0809 406.4 43.5947 397.308 35.6397L394.674 38.65ZM406.674 69.4H402.674C402.674 82.0782 398.95 91.1576 392.019 97.3083L394.674 100.3L397.33 103.292C406.399 95.2424 410.674 83.7218 410.674 69.4H406.674ZM394.674 100.3L392.022 97.3062C385.059 103.475 375.213 106.8 361.974 106.8V110.8V114.8C376.536 114.8 388.49 111.125 397.327 103.294L394.674 100.3ZM361.974 110.8V106.8C348.736 106.8 338.889 103.475 331.927 97.3062L329.274 100.3L326.622 103.294C335.459 111.125 347.413 114.8 361.974 114.8V110.8ZM329.274 100.3L331.927 97.3062C325.116 91.2712 321.424 82.2073 321.424 69.4H317.424H313.424C313.424 83.7926 317.633 95.3288 326.622 103.294L329.274 100.3ZM317.424 69.4H321.424C321.424 56.5927 325.116 47.5288 331.927 41.4938L329.274 38.5L326.622 35.5062C317.633 43.4712 313.424 55.0073 313.424 69.4H317.424ZM329.274 38.5L331.927 41.4938C338.889 35.3247 348.736 32 361.974 32V28V24C347.413 24 335.459 27.6753 326.622 35.5062L329.274 38.5ZM361.974 48.25V44.25C356.298 44.25 351.357 45.9128 347.928 49.8668C344.593 53.7117 343.274 59.0621 343.274 65.2H347.274H351.274C351.274 60.0379 352.406 56.9133 353.971 55.1082C355.442 53.4121 357.851 52.25 361.974 52.25V48.25ZM347.274 65.2H343.274V73.75H347.274H351.274V65.2H347.274ZM347.274 73.75H343.274C343.274 79.8451 344.596 85.1635 347.939 88.984C351.371 92.9065 356.309 94.55 361.974 94.55V90.55V86.55C357.84 86.55 355.428 85.3935 353.96 83.716C352.403 81.9365 351.274 78.8549 351.274 73.75H347.274ZM361.974 90.55V94.55C367.678 94.55 372.648 92.9142 376.109 88.9991C379.486 85.1782 380.824 79.8535 380.824 73.75H376.824H372.824C372.824 78.8465 371.687 81.9218 370.115 83.7009C368.626 85.3858 366.171 86.55 361.974 86.55V90.55ZM376.824 73.75H380.824V65.2H376.824H372.824V73.75H376.824ZM376.824 65.2H380.824C380.824 59.0538 379.49 53.6971 376.121 49.8516C372.663 45.905 367.689 44.25 361.974 44.25V48.25V52.25C366.16 52.25 368.611 53.42 370.103 55.1234C371.684 56.9278 372.824 60.0462 372.824 65.2H376.824ZM476.273 29.8V25.8H474.404L473.205 27.2333L476.273 29.8ZM511.073 29.8L514.024 32.501L520.158 25.8H511.073V29.8ZM481.823 61.75L478.873 59.049L476.805 61.3082L478.446 63.894L481.823 61.75ZM511.823 109V113H519.101L515.2 106.856L511.823 109ZM477.923 109L474.513 111.091L475.684 113H477.923V109ZM461.273 81.85L464.683 79.7589L462.071 75.4997L458.487 78.9803L461.273 81.85ZM450.923 91.9L448.137 89.0303L446.923 90.2086V91.9H450.923ZM450.923 109V113H454.923V109H450.923ZM421.073 109H417.073V113H421.073V109ZM421.073 0.0999985V-3.9H417.073V0.0999985H421.073ZM450.923 0.0999985H454.923V-3.9H450.923V0.0999985ZM450.923 60.1H446.923V71.1147L453.991 62.6667L450.923 60.1ZM476.273 29.8V33.8H511.073V29.8V25.8H476.273V29.8ZM511.073 29.8L508.123 27.099L478.873 59.049L481.823 61.75L484.774 64.451L514.024 32.501L511.073 29.8ZM481.823 61.75L478.446 63.894L508.446 111.144L511.823 109L515.2 106.856L485.2 59.606L481.823 61.75ZM511.823 109V105H477.923V109V113H511.823V109ZM477.923 109L481.333 106.909L464.683 79.7589L461.273 81.85L457.863 83.9411L474.513 111.091L477.923 109ZM461.273 81.85L458.487 78.9803L448.137 89.0303L450.923 91.9L453.71 94.7697L464.06 84.7197L461.273 81.85ZM450.923 91.9H446.923V109H450.923H454.923V91.9H450.923ZM450.923 109V105H421.073V109V113H450.923V109ZM421.073 109H425.073V0.0999985H421.073H417.073V109H421.073ZM421.073 0.0999985V4.1H450.923V0.0999985V-3.9H421.073V0.0999985ZM450.923 0.0999985H446.923V60.1H450.923H454.923V0.0999985H450.923ZM450.923 60.1L453.991 62.6667L479.341 32.3667L476.273 29.8L473.205 27.2333L447.855 57.5333L450.923 60.1ZM585.622 34.3L583.627 37.7671L583.655 37.7832L583.684 37.7989L585.622 34.3ZM596.722 53.5V57.5H600.722V53.5H596.722ZM568.972 53.5H564.972V57.5H568.972V53.5ZM565.072 47.35L563.13 50.8466L563.26 50.9192L563.396 50.9818L565.072 47.35ZM551.272 55L550.053 58.8097V58.8097L551.272 55ZM563.572 57.55L562.948 61.501L562.977 61.5056L563.006 61.5098L563.572 57.55ZM581.122 61.15L579.98 64.9835L580.018 64.9948L580.056 65.0052L581.122 61.15ZM593.422 68.35L590.594 71.1784L590.614 71.1989L590.635 71.2191L593.422 68.35ZM587.272 104.35L585.302 100.869L585.292 100.874L585.283 100.88L587.272 104.35ZM537.922 107.95L536.694 111.757L536.722 111.766L536.75 111.774L537.922 107.95ZM522.772 98.8L519.874 101.557L522.772 98.8ZM516.922 83.2V79.2H512.922V83.2H516.922ZM544.672 83.2H548.672V79.2H544.672V83.2ZM544.672 83.8H540.672V83.8588L540.674 83.9176L544.672 83.8ZM548.872 91L547.031 94.551L547.108 94.5912L547.188 94.628L548.872 91ZM566.272 82.75L567.581 78.9701L566.272 82.75ZM553.522 79.9L554.19 75.9562L554.189 75.9559L553.522 79.9ZM535.972 76L534.784 79.8194L534.796 79.8231L534.807 79.8267L535.972 76ZM524.122 68.95L521.294 71.7784L521.315 71.7995L521.336 71.8203L524.122 68.95ZM529.972 34.15L528.034 30.6511L528.023 30.6568L528.013 30.6624L529.972 34.15ZM558.772 28V32C568.85 32 577.072 33.9956 583.627 37.7671L585.622 34.3L587.617 30.8329C579.572 26.2044 569.894 24 558.772 24V28ZM585.622 34.3L583.684 37.7989C586.842 39.5491 589.047 41.6913 590.484 44.177C591.925 46.6685 592.722 49.7277 592.722 53.5H596.722H600.722C600.722 48.5723 599.67 44.0815 597.41 40.173C595.147 36.2587 591.802 33.1509 587.561 30.8011L585.622 34.3ZM596.722 53.5V49.5H568.972V53.5V57.5H596.722V53.5ZM568.972 53.5H572.972C572.972 51.4407 572.505 49.4264 571.375 47.6453C570.244 45.8611 568.619 44.5817 566.748 43.7182L565.072 47.35L563.396 50.9818C564.125 51.3183 564.451 51.6639 564.619 51.9297C564.79 52.1986 564.972 52.6593 564.972 53.5H568.972ZM565.072 47.35L567.015 43.8534C564.464 42.4362 561.497 41.85 558.322 41.85V45.85V49.85C560.547 49.85 562.08 50.2638 563.13 50.8466L565.072 47.35ZM558.322 45.85V41.85C554.534 41.85 551.121 42.2771 548.514 43.508C547.158 44.1482 545.873 45.0756 544.929 46.412C543.96 47.7851 543.522 49.3514 543.522 50.95H547.522H551.522C551.522 50.8485 551.534 50.9274 551.465 51.0255C551.422 51.0869 551.486 50.9518 551.93 50.742C552.923 50.2729 554.91 49.85 558.322 49.85V45.85ZM547.522 50.95H543.522C543.522 52.8713 544.191 54.6644 545.525 56.1051C546.776 57.4563 548.41 58.284 550.053 58.8097L551.272 55L552.491 51.1903C551.634 50.916 551.393 50.6687 551.395 50.6699C551.407 50.6836 551.454 50.7416 551.49 50.836C551.525 50.9281 551.522 50.979 551.522 50.95H547.522ZM551.272 55L550.053 58.8097C552.866 59.71 557.227 60.5976 562.948 61.501L563.572 57.55L564.196 53.5989C558.517 52.7023 554.678 51.89 552.491 51.1903L551.272 55ZM563.572 57.55L563.006 61.5098C569.889 62.493 575.531 63.6583 579.98 64.9835L581.122 61.15L582.264 57.3165C577.313 55.8417 571.255 54.607 564.138 53.5902L563.572 57.55ZM581.122 61.15L580.056 65.0052C584.079 66.1181 587.575 68.1595 590.594 71.1784L593.422 68.35L596.25 65.5216C592.269 61.5405 587.565 58.7819 582.188 57.2948L581.122 61.15ZM593.422 68.35L590.635 71.2191C593.163 73.675 594.672 77.3223 594.672 82.75H598.672H602.672C602.672 75.7777 600.681 69.825 596.209 65.4809L593.422 68.35ZM598.672 82.75H594.672C594.672 91.6793 591.429 97.4025 585.302 100.869L587.272 104.35L589.242 107.831C598.316 102.698 602.672 94.0207 602.672 82.75H598.672ZM587.272 104.35L585.283 100.88C578.587 104.719 569.496 106.8 557.722 106.8V110.8V114.8C570.348 114.8 580.957 112.581 589.262 107.82L587.272 104.35ZM557.722 110.8V106.8C551.088 106.8 544.885 105.9 539.094 104.126L537.922 107.95L536.75 111.774C543.359 113.8 550.356 114.8 557.722 114.8V110.8ZM537.922 107.95L539.15 104.143C533.489 102.317 529.044 99.5904 525.67 96.0431L522.772 98.8L519.874 101.557C524.3 106.21 529.955 109.583 536.694 111.757L537.922 107.95ZM522.772 98.8L525.67 96.0431C522.56 92.7735 520.922 88.6001 520.922 83.2H516.922H512.922C512.922 90.3999 515.184 96.6265 519.874 101.557L522.772 98.8ZM516.922 83.2V87.2H544.672V83.2V79.2H516.922V83.2ZM544.672 83.2H540.672V83.8H544.672H548.672V83.2H544.672ZM544.672 83.8L540.674 83.9176C540.81 88.5599 542.867 92.3918 547.031 94.551L548.872 91L550.713 87.449C549.477 86.8082 548.734 85.8401 548.67 83.6824L544.672 83.8ZM548.872 91L547.188 94.628C550.518 96.1741 554.043 96.95 557.722 96.95V92.95V88.95C555.201 88.95 552.826 88.4259 550.557 87.372L548.872 91ZM557.722 92.95V96.95C562.059 96.95 565.882 96.4606 568.761 95.1078C570.252 94.4069 571.642 93.4034 572.656 91.9738C573.697 90.5065 574.172 88.8279 574.172 87.1H570.172H566.172C566.172 87.2298 566.155 87.2917 566.151 87.3076C566.147 87.3204 566.143 87.3282 566.131 87.345C566.108 87.3778 565.942 87.5931 565.358 87.8672C564.088 88.4644 561.685 88.95 557.722 88.95V92.95ZM570.172 87.1H574.172C574.172 85.1438 573.503 83.3226 572.175 81.8423C570.923 80.4456 569.272 79.5557 567.581 78.9701L566.272 82.75L564.964 86.5299C565.872 86.8443 566.171 87.1293 566.219 87.1827C566.232 87.1973 566.207 87.1717 566.185 87.1136C566.164 87.0571 566.172 87.0407 566.172 87.1H570.172ZM566.272 82.75L567.581 78.9701C564.646 77.9542 560.116 76.9606 554.19 75.9562L553.522 79.9L552.854 83.8438C558.728 84.8394 562.698 85.7458 564.964 86.5299L566.272 82.75ZM553.522 79.9L554.189 75.9559C547.183 74.7719 541.515 73.5057 537.137 72.1733L535.972 76L534.807 79.8267C539.63 81.2943 545.661 82.6281 552.855 83.8441L553.522 79.9ZM535.972 76L537.16 72.1806C533.263 70.9682 529.86 68.9447 526.908 66.0797L524.122 68.95L521.336 71.8203C525.184 75.5553 529.681 78.2318 534.784 79.8194L535.972 76ZM524.122 68.95L526.951 66.1216C524.477 63.6477 523.022 60.067 523.022 54.85H519.022H515.022C515.022 61.633 516.968 67.4523 521.294 71.7784L524.122 68.95ZM519.022 54.85H523.022C523.022 46.3209 526.115 40.9043 531.931 37.6376L529.972 34.15L528.013 30.6624C519.23 35.5957 515.022 43.9791 515.022 54.85H519.022ZM529.972 34.15L531.911 37.6489C538.529 33.9819 547.396 32 558.772 32V28V24C546.548 24 536.215 26.1181 528.034 30.6511L529.972 34.15Z" fill="white" mask="url(#path-1-inside-1_1760_41558)"/>
</svg>
